<?xml version="1.0" standalone="no"?>
<!DOCTYPE svg PUBLIC "-//W3C//DTD SVG 20010904//EN"
 "http://www.w3.org/TR/2001/REC-SVG-20010904/DTD/svg10.dtd">
<svg version="1.0" xmlns="http://www.w3.org/2000/svg"
 width="1063.000000pt" height="1063.000000pt" viewBox="0 0 1063.000000 1063.000000"
 preserveAspectRatio="xMidYMid meet">

<g transform="translate(0.000000,1063.000000) scale(0.100000,-0.100000)"
fill="#000000" stroke="none">
<path d="M5407 10561 c-144 -48 -220 -146 -220 -286 0 -156 83 -242 321 -332
180 -67 232 -119 232 -231 0 -45 -5 -67 -23 -93 -87 -129 -355 -111 -426 29
-11 21 -22 54 -26 74 -6 32 -11 36 -43 42 -21 3 -50 6 -66 6 l-29 0 7 -52 c9
-73 58 -170 108 -212 182 -156 497 -117 603 75 27 49 30 63 30 144 0 108 -18
149 -95 218 -39 35 -85 60 -201 109 -203 85 -259 134 -259 228 0 90 55 152
153 172 67 14 145 0 198 -36 35 -24 73 -87 84 -138 5 -27 8 -28 69 -28 l64 0
-5 43 c-13 104 -91 205 -195 252 -82 37 -198 44 -281 16z"/>
<path d="M4317 10478 c-37 -8 -47 -14 -43 -27 3 -9 50 -259 106 -556 56 -296
102 -540 104 -542 1 -1 30 3 64 9 60 11 63 13 57 37 -3 14 -48 256 -100 536
-52 281 -97 520 -100 533 -6 24 -14 25 -88 10z"/>
<path d="M6565 10364 c-9 -31 -15 -57 -13 -59 2 -1 63 -22 136 -46 72 -24 132
-46 132 -50 0 -3 -68 -215 -151 -470 -84 -255 -152 -470 -153 -478 -1 -16 104
-55 115 -44 4 5 76 220 160 478 84 259 154 472 156 475 2 2 61 -15 131 -38 70
-23 133 -42 139 -42 15 0 48 99 37 109 -7 6 -544 184 -651 215 -19 6 -23 1
-38 -50z"/>
<path d="M3183 10119 c-174 -29 -339 -153 -417 -313 -44 -91 -60 -161 -59
-261 1 -271 189 -510 449 -571 92 -21 235 -14 323 16 35 13 97 45 138 72 145
98 223 238 239 429 5 56 4 79 -4 79 -7 0 -36 -12 -67 -27 -49 -24 -55 -31 -55
-58 0 -92 -59 -214 -137 -285 -205 -187 -522 -143 -675 94 -59 91 -81 177 -76
290 3 83 8 102 40 167 48 96 113 162 206 207 129 61 282 54 398 -20 l48 -30
58 28 c32 15 58 31 58 35 0 13 -83 69 -149 101 -60 28 -186 58 -241 56 -14 0
-49 -4 -77 -9z"/>
<path d="M1833 9255 l-48 -43 26 -29 c14 -15 184 -207 378 -426 l351 -398 48
45 47 45 -26 28 c-14 15 -164 186 -334 378 -170 193 -328 371 -351 396 l-42
46 -49 -42z"/>
<path d="M7984 8577 c-16 -18 -40 -44 -52 -58 l-23 -26 55 -47 56 -47 31 36
c17 19 40 47 51 60 l19 25 -37 32 c-69 61 -68 61 -100 25z"/>
<path d="M1165 8491 c-102 -50 -172 -132 -205 -237 -40 -131 -19 -226 68 -314
64 -63 124 -90 204 -90 72 0 130 27 286 133 180 122 226 136 309 96 96 -47
128 -147 80 -252 -31 -69 -86 -130 -141 -156 -50 -25 -138 -27 -176 -6 -14 8
-30 14 -36 15 -12 0 -80 -98 -73 -104 2 -2 24 -14 49 -26 67 -34 177 -39 252
-10 102 38 213 159 252 274 22 64 22 163 1 227 -36 107 -163 193 -281 191 -83
-1 -128 -22 -301 -139 -129 -88 -147 -97 -197 -101 -69 -6 -105 9 -150 59 -45
49 -53 91 -31 164 13 45 28 69 68 109 76 76 153 92 247 52 18 -8 84 78 76 99
-8 22 -96 45 -170 45 -58 0 -82 -5 -131 -29z"/>
<path d="M9375 7670 c-275 -125 -506 -232 -512 -237 -16 -10 119 -307 183
-405 147 -221 388 -311 629 -234 311 99 466 375 386 688 -18 70 -169 419 -181
418 -3 -1 -230 -104 -505 -230z m490 -17 c80 -168 105 -284 85 -393 -36 -202
-233 -359 -451 -360 -177 -1 -313 104 -421 325 -32 66 -58 125 -58 130 0 8
779 372 801 374 4 1 23 -34 44 -76z"/>
<path d="M472 7384 l-21 -67 157 -175 c86 -96 174 -194 195 -218 l37 -42 -27
-6 c-16 -3 -134 -24 -263 -46 -129 -22 -247 -43 -262 -46 -23 -4 -30 -15 -48
-70 -12 -36 -20 -67 -19 -69 2 -1 157 26 344 61 187 35 352 64 367 64 14 0
124 -34 244 -75 120 -42 223 -74 229 -71 11 4 49 105 42 112 -2 2 -101 38
-221 79 -119 41 -225 79 -234 84 -9 5 -123 131 -252 280 -129 148 -237 270
-240 270 -3 1 -16 -29 -28 -65z"/>
<path d="M9886 6189 c-302 -38 -551 -70 -552 -72 -1 -1 15 -137 35 -302 l37
-300 58 2 c32 1 60 3 61 5 2 2 -10 107 -26 233 -16 127 -29 235 -29 241 0 16
390 60 399 46 4 -7 17 -101 30 -210 12 -108 24 -204 27 -213 4 -13 13 -14 60
-8 31 4 57 9 59 11 1 2 -10 102 -25 223 -15 121 -27 221 -26 222 2 3 319 43
342 43 20 0 22 -12 48 -227 15 -126 29 -230 31 -232 2 -2 29 0 60 4 48 6 55 9
55 28 0 12 -16 146 -35 297 -19 151 -35 276 -35 278 0 3 35 7 -574 -69z"/>
<path d="M80 5826 l0 -66 128 0 c70 0 178 -3 240 -7 l112 -6 0 -126 c0 -69 -3
-204 -7 -299 l-6 -173 -244 7 -243 7 0 -66 0 -67 78 0 c42 0 230 -5 417 -10
187 -5 408 -10 490 -11 l150 -2 3 60 c3 56 1 61 -20 67 -13 3 -102 6 -198 6
-96 0 -205 3 -242 6 l-67 7 5 266 c3 146 7 280 10 298 l5 32 258 -6 259 -6 7
45 c13 88 30 82 -235 89 -129 3 -385 10 -567 14 l-333 8 0 -67z"/>
<path d="M9930 4818 c-316 -60 -576 -110 -577 -111 -1 -2 -5 -21 -8 -42 l-6
-40 522 -293 c287 -161 526 -289 530 -285 5 5 10 35 11 68 l3 59 -320 178
c-176 97 -358 199 -405 225 -83 46 -84 47 -55 54 17 4 224 42 462 85 l432 78
10 61 c14 78 14 75 -6 74 -10 -1 -277 -50 -593 -111z"/>
<path d="M479 4335 c-149 -48 -242 -193 -226 -350 4 -38 102 -399 111 -412 1
-1 247 70 546 157 300 88 545 160 546 160 7 0 -36 115 -44 118 -5 1 -110 -27
-232 -63 -122 -36 -224 -64 -226 -62 -2 2 -20 57 -40 122 -43 142 -62 183
-116 241 -79 86 -213 123 -319 89z m182 -141 c34 -17 86 -76 102 -117 22 -53
71 -227 65 -232 -6 -6 -381 -116 -383 -112 -5 6 -64 217 -69 250 -5 24 -1 58
8 90 34 117 169 176 277 121z"/>
<path d="M8981 3534 c-72 -152 -131 -277 -129 -279 2 -1 26 -14 54 -28 l50
-26 106 220 106 219 159 -76 c87 -42 168 -81 181 -87 12 -5 22 -13 22 -17 0
-4 -43 -96 -96 -204 -53 -109 -94 -199 -92 -201 2 -1 26 -14 54 -28 l51 -26
98 205 c54 112 99 204 100 204 4 0 320 -153 324 -156 2 -2 -42 -99 -98 -215
-56 -116 -101 -212 -99 -214 16 -13 103 -44 109 -38 10 10 259 526 256 530 -3
2 -1019 493 -1021 493 -1 0 -62 -124 -135 -276z"/>
<path d="M8364 2617 l-182 -211 42 -38 c22 -20 44 -37 48 -38 3 0 68 72 144
160 76 88 141 160 146 160 5 0 177 -146 384 -325 206 -179 379 -325 383 -325
5 0 25 21 46 46 37 45 37 46 19 64 -68 63 -834 720 -841 719 -4 0 -90 -95
-189 -212z"/>
<path d="M2038 2732 c-31 -26 -57 -49 -57 -52 -1 -3 21 -29 47 -58 l47 -52 55
46 c30 25 56 49 57 53 2 3 -19 29 -45 58 l-47 52 -57 -47z"/>
<path d="M7613 1920 c-177 -32 -352 -164 -427 -323 -45 -96 -57 -151 -57 -261
0 -153 51 -280 157 -396 300 -323 836 -204 985 220 34 95 33 256 0 359 -45
136 -147 263 -265 330 -112 64 -271 92 -393 71z m202 -134 c230 -61 385 -294
347 -522 -36 -219 -221 -383 -434 -384 -179 -1 -345 107 -425 277 -32 66 -38
89 -41 165 -5 97 7 157 45 233 93 187 308 285 508 231z"/>
<path d="M3484 1528 c24 -68 71 -199 105 -293 34 -93 61 -172 61 -175 0 -3
-34 -6 -75 -6 -65 -1 -84 -5 -142 -35 -191 -97 -231 -348 -81 -499 23 -23 61
-52 84 -66 34 -20 385 -155 391 -150 2 2 383 1045 386 1058 2 9 -80 45 -109
47 -6 1 -46 -95 -89 -213 -42 -117 -80 -218 -84 -225 -5 -8 -24 -5 -68 9 l-60
21 -103 292 c-56 161 -108 297 -114 303 -10 10 -124 54 -139 54 -3 0 13 -55
37 -122z m288 -643 c60 -22 108 -44 108 -49 0 -8 -129 -368 -134 -373 -1 -1
-55 18 -121 42 -134 50 -180 81 -213 146 -27 52 -25 114 6 176 58 113 159 130
354 58z"/>
<path d="M6402 1384 c-30 -7 -56 -14 -59 -17 -2 -3 18 -110 46 -238 28 -128
50 -233 48 -235 -1 -1 -56 -14 -121 -28 -145 -32 -210 -60 -275 -121 -68 -63
-96 -129 -95 -225 1 -180 137 -313 324 -314 85 0 430 70 430 88 0 21 -233
1091 -239 1097 -3 3 -30 0 -59 -7z m107 -806 c23 -105 38 -195 34 -199 -15
-14 -205 -49 -264 -49 -125 0 -199 75 -199 202 0 102 72 173 203 202 39 9 90
20 112 25 75 17 68 28 114 -181z"/>
<path d="M4706 1248 c-3 -13 -6 -40 -6 -60 0 -36 1 -37 43 -42 23 -3 130 -11
237 -17 107 -6 197 -13 199 -15 5 -5 -16 -395 -22 -400 -2 -2 -101 3 -221 11
-119 9 -222 13 -227 10 -5 -4 -9 -30 -9 -60 l0 -53 63 -6 c34 -4 134 -11 222
-16 87 -6 161 -13 163 -15 5 -5 -18 -348 -24 -354 -2 -3 -106 1 -229 9 -124 7
-228 10 -231 7 -3 -3 -8 -30 -11 -61 l-6 -56 49 -1 c27 0 162 -8 300 -17 l252
-17 5 60 c13 134 70 1066 65 1070 -2 3 -107 11 -234 19 -126 9 -261 18 -300
21 -68 6 -72 6 -78 -17z"/>
</g>
</svg>
